<mxfile host="Electron" modified="2024-03-11T12:44:23.098Z" agent="Mozilla/5.0 (Windows NT 10.0; Win64; x64) AppleWebKit/537.36 (KHTML, like Gecko) draw.io/23.1.5 Chrome/120.0.6099.109 Electron/28.1.0 Safari/537.36" etag="8DNRLd4-LF-9iZvaVGIj" version="23.1.5" type="device">
  <diagram name="Page-1" id="abpBSwg9-0okHmszW-Rc">
    <mxGraphModel dx="864" dy="516" grid="1" gridSize="10" guides="1" tooltips="1" connect="1" arrows="1" fold="1" page="1" pageScale="1" pageWidth="850" pageHeight="1100" math="0" shadow="0">
      <root>
        <mxCell id="0" />
        <mxCell id="1" parent="0" />
        <mxCell id="oMS03we0nf6n413ZXsHL-4" style="edgeStyle=orthogonalEdgeStyle;rounded=0;orthogonalLoop=1;jettySize=auto;html=1;exitX=0.5;exitY=1;exitDx=0;exitDy=0;" edge="1" parent="1" source="oMS03we0nf6n413ZXsHL-1" target="oMS03we0nf6n413ZXsHL-3">
          <mxGeometry relative="1" as="geometry" />
        </mxCell>
        <mxCell id="oMS03we0nf6n413ZXsHL-1" value="START&lt;div&gt;&lt;br/&gt;&lt;/div&gt;" style="ellipse;whiteSpace=wrap;html=1;" vertex="1" parent="1">
          <mxGeometry x="280" width="120" height="80" as="geometry" />
        </mxCell>
        <mxCell id="oMS03we0nf6n413ZXsHL-2" value="END" style="ellipse;whiteSpace=wrap;html=1;" vertex="1" parent="1">
          <mxGeometry x="280" y="480" width="120" height="80" as="geometry" />
        </mxCell>
        <mxCell id="oMS03we0nf6n413ZXsHL-14" value="" style="edgeStyle=orthogonalEdgeStyle;rounded=0;orthogonalLoop=1;jettySize=auto;html=1;" edge="1" parent="1" source="oMS03we0nf6n413ZXsHL-3" target="oMS03we0nf6n413ZXsHL-5">
          <mxGeometry relative="1" as="geometry" />
        </mxCell>
        <mxCell id="oMS03we0nf6n413ZXsHL-3" value="INPUT N&lt;div&gt;&lt;br/&gt;&lt;/div&gt;" style="shape=parallelogram;perimeter=parallelogramPerimeter;whiteSpace=wrap;html=1;fixedSize=1;" vertex="1" parent="1">
          <mxGeometry x="280" y="120" width="120" height="60" as="geometry" />
        </mxCell>
        <mxCell id="oMS03we0nf6n413ZXsHL-7" value="" style="edgeStyle=orthogonalEdgeStyle;rounded=0;orthogonalLoop=1;jettySize=auto;html=1;" edge="1" parent="1" source="oMS03we0nf6n413ZXsHL-5" target="oMS03we0nf6n413ZXsHL-6">
          <mxGeometry relative="1" as="geometry" />
        </mxCell>
        <mxCell id="oMS03we0nf6n413ZXsHL-9" value="" style="edgeStyle=orthogonalEdgeStyle;rounded=0;orthogonalLoop=1;jettySize=auto;html=1;" edge="1" parent="1" source="oMS03we0nf6n413ZXsHL-5" target="oMS03we0nf6n413ZXsHL-8">
          <mxGeometry relative="1" as="geometry" />
        </mxCell>
        <mxCell id="oMS03we0nf6n413ZXsHL-5" value="IF N MOD 2=0" style="rhombus;whiteSpace=wrap;html=1;" vertex="1" parent="1">
          <mxGeometry x="280" y="234" width="120" height="80" as="geometry" />
        </mxCell>
        <mxCell id="oMS03we0nf6n413ZXsHL-6" value="PRINT &quot;EVEN&quot;" style="whiteSpace=wrap;html=1;" vertex="1" parent="1">
          <mxGeometry x="500" y="244" width="120" height="60" as="geometry" />
        </mxCell>
        <mxCell id="oMS03we0nf6n413ZXsHL-10" style="edgeStyle=orthogonalEdgeStyle;rounded=0;orthogonalLoop=1;jettySize=auto;html=1;exitX=0.5;exitY=1;exitDx=0;exitDy=0;entryX=0.5;entryY=0;entryDx=0;entryDy=0;" edge="1" parent="1" source="oMS03we0nf6n413ZXsHL-8" target="oMS03we0nf6n413ZXsHL-2">
          <mxGeometry relative="1" as="geometry" />
        </mxCell>
        <mxCell id="oMS03we0nf6n413ZXsHL-8" value="PRINT &quot;ODD&quot;&lt;br&gt;&lt;br&gt;&lt;div&gt;&lt;br&gt;&lt;/div&gt;" style="whiteSpace=wrap;html=1;" vertex="1" parent="1">
          <mxGeometry x="279" y="370" width="120" height="60" as="geometry" />
        </mxCell>
        <mxCell id="oMS03we0nf6n413ZXsHL-12" value="YES&lt;div&gt;&lt;br/&gt;&lt;/div&gt;" style="text;html=1;align=center;verticalAlign=middle;whiteSpace=wrap;rounded=0;" vertex="1" parent="1">
          <mxGeometry x="380" y="259" width="60" height="30" as="geometry" />
        </mxCell>
        <mxCell id="oMS03we0nf6n413ZXsHL-13" value="NO&lt;div&gt;&lt;br/&gt;&lt;/div&gt;" style="text;html=1;align=center;verticalAlign=middle;whiteSpace=wrap;rounded=0;" vertex="1" parent="1">
          <mxGeometry x="340" y="340" width="60" height="30" as="geometry" />
        </mxCell>
      </root>
    </mxGraphModel>
  </diagram>
</mxfile>
